<svg width="1366" height="1366" viewBox="0 0 1366 1366" fill="none" xmlns="http://www.w3.org/2000/svg">
<path d="M636.998 818.106C498.485 934.209 385.158 1030.16 385.076 1031.09C384.797 1034.28 402.52 1059.66 417.671 1077.71C470.395 1140.55 537.419 1180.67 621.925 1199.98C643.961 1205.12 689.387 1209.09 711.305 1207.93C740.621 1206.35 776.2 1200.49 802.586 1192.63C845.59 1179.93 898.727 1150.85 932.066 1121.64C987.442 1073.09 1024.46 1011.01 1040.31 939.987C1045.39 917.143 1048.16 873.217 1046.08 849.612C1039.38 773.138 1009.7 710.044 954.08 654.318C935.378 635.55 898.465 607.693 891.558 607.089C889.433 606.903 816.846 667.072 636.998 818.106Z" fill="url(#paint0_linear_397_7864)"/>
<path d="M728.844 547.785C867.357 431.682 980.685 335.727 980.766 334.798C981.045 331.61 963.322 306.235 948.172 288.179C895.447 225.345 828.423 185.218 743.917 165.912C721.881 160.772 676.455 156.798 654.537 157.959C625.221 159.543 589.642 165.398 563.256 173.261C520.252 185.962 467.115 215.041 433.777 244.246C378.4 292.805 341.382 354.881 325.532 425.904C320.455 448.748 317.683 492.674 319.767 516.278C326.461 592.753 356.141 655.846 411.763 711.573C430.465 730.341 467.377 758.197 474.284 758.802C476.409 758.988 548.996 698.818 728.844 547.785Z" fill="white"/>
<defs>
<linearGradient id="paint0_linear_397_7864" x1="721" y1="713" x2="862.5" y2="1179.5" gradientUnits="userSpaceOnUse">
<stop stop-color="#FF00CC"/>
<stop offset="1" stop-color="#333399"/>
</linearGradient>
</defs>
</svg>
